<?xml version="1.0" encoding="utf-8"?>
<!-- Generator: Adobe Illustrator 23.0.2, SVG Export Plug-In . SVG Version: 6.00 Build 0)  -->
<svg version="1.1" xmlns="http://www.w3.org/2000/svg" xmlns:xlink="http://www.w3.org/1999/xlink" x="0px" y="0px"
	 viewBox="0 0 1047 1280" style="enable-background:new 0 0 1047 1280;" xml:space="preserve">
<style type="text/css">
	.st0{fill:#3F3F3F;}
	.st1{opacity:0.3;}
</style>
<g id="Layer_1">
	<g transform="translate(0.000000,1280.000000) scale(0.100000,-0.100000)">
		<path class="st0" d="M0,12790c0-6,110-10,310-10h310v-130v-130H310c-200,0-310-4-310-10s112-10,315-10h315v150v150H315
			C112,12800,0,12796,0,12790z"/>
		<path class="st0" d="M697,12793c-4-3-7-71-7-150v-143l743,2l742,3l3,148l3,147h-739C1036,12800,700,12797,697,12793z"/>
		<path class="st0" d="M2240,12650v-150h740h740v150v150h-740h-740V12650z"/>
		<path class="st0" d="M3785,12778c-3-13-4-79-3-148l3-125h740h740l3,148l3,147h-741h-740L3785,12778z"/>
		<path class="st0" d="M5337,12793c-4-3-7-71-7-150v-143l743,2l742,3v145v145l-736,3C5675,12799,5340,12797,5337,12793z"/>
		<path class="st0" d="M6880,12650v-150h740h740v150v150h-740h-740V12650z"/>
		<path class="st0" d="M8427,12793c-4-3-7-71-7-150v-143l743,2l742,3l3,148l3,147h-739C8766,12800,8430,12797,8427,12793z"/>
		<path class="st0" d="M9970,12650v-150h250c160,0,250,4,250,10s-88,10-245,10h-245v130v130h245c157,0,245,4,245,10s-90,10-250,10
			h-250V12650z"/>
		<path class="st0" d="M693,12423l697-3v-135v-135H695c-457,0-695-3-695-10s238-10,694-10c579,0,695,2,705,14c8,9,11,57,9,147
			l-3,134H700H-5L693,12423z"/>
		<path class="st0" d="M1465,12408c-3-13-4-79-3-148l3-125h740h740l3,148l3,147h-741h-740L1465,12408z"/>
		<path class="st0" d="M3014,12417c-2-7-3-74-2-148l3-134l720-3c396-1,730,0,743,3c22,5,22,8,22,150v145h-740
			C3161,12430,3018,12428,3014,12417z"/>
		<path class="st0" d="M4560,12280v-150l738,2l737,3l3,148l3,147h-741h-740V12280z"/>
		<path class="st0" d="M6104,12417c-2-7-3-74-2-148l3-134h740h740l3,148l3,147h-741C6251,12430,6108,12428,6104,12417z"/>
		<path class="st0" d="M7650,12280v-150h734c482,0,737,3,741,10c3,6,6,72,6,148v137l-740,3l-741,2V12280z"/>
		<path class="st0" d="M9199,12426c-2-2-3-70-1-150l3-146h635c416,0,634,3,634,10s-217,10-630,10h-630v135v135l633,3l632,2l-636,3
			C9489,12429,9201,12428,9199,12426z"/>
		<path class="st0" d="M307,12053l313-3v-135v-135l-313-3l-312-2l318-3l317-2v145v145l-317-2l-318-3L307,12053z"/>
		<path class="st0" d="M690,11915v-145h745h745v145v145h-745H690V11915z"/>
		<path class="st0" d="M2240,11915v-145h740h740v145v145h-740h-740V11915z"/>
		<path class="st0" d="M3787,12053c-4-3-7-69-7-145v-138h745h745v145v145h-738C4126,12060,3790,12057,3787,12053z"/>
		<path class="st0" d="M5330,11915v-145l743,2l742,3l3,143l3,142h-746h-745V11915z"/>
		<path class="st0" d="M6880,11915v-145h740h740v145v145h-740h-740V11915z"/>
		<path class="st0" d="M8420,11915v-145h745h745v145v145h-745h-745V11915z"/>
		<path class="st0" d="M9970,11915v-145l253,2l252,3l-247,2l-248,3v135v135l248,3l247,2l-252,3l-253,2V11915z"/>
		<path class="st0" d="M0,11690c0-7,235-10,695-10h695v-135v-135l-697-3l-698-2h705h705v145v145l-702,3C236,11699,0,11697,0,11690z"
			/>
		<path class="st0" d="M1472,11687c-7-8-10-63-9-147l2-135l743-3l742-2v150v150h-734C1629,11700,1480,11697,1472,11687z"/>
		<path class="st0" d="M3017,11693c-4-3-7-71-7-150v-143l743,2l742,3v145v145l-736,3C3355,11699,3020,11697,3017,11693z"/>
		<path class="st0" d="M4567,11693c-4-3-7-71-7-150v-143h740h740v150v150h-733C4903,11700,4570,11697,4567,11693z"/>
		<path class="st0" d="M6107,11693c-4-3-7-71-7-150v-143h745h746l-3,148l-3,147l-736,3C6445,11699,6110,11697,6107,11693z"/>
		<path class="st0" d="M7657,11693c-4-3-7-71-7-150v-143l741,2l740,3v145v145l-734,3C7994,11699,7660,11697,7657,11693z"/>
		<path class="st0" d="M9205,11691c-6-6-9-71-7-150l3-141l637,2l637,3l-632,2l-633,3v135v135h630c413,0,630,3,630,10
			C10470,11703,9218,11704,9205,11691z"/>
		<path class="st0" d="M0,11320c0-6,110-10,310-10h310v-130v-130H310c-203,0-310-4-310-10c0-7,106-9,313-8l312,3l3,148l3,147H315
			C112,11330,0,11326,0,11320z"/>
		<path class="st0" d="M697,11323c-4-3-7-71-7-150v-143l743,2l742,3l3,148l3,147h-739C1036,11330,700,11327,697,11323z"/>
		<path class="st0" d="M2240,11180v-150h740h740v150v150h-740h-740V11180z"/>
		<path class="st0" d="M3784,11317c-2-7-3-74-2-148l3-134h740h740l3,148l3,147h-741C3931,11330,3788,11328,3784,11317z"/>
		<path class="st0" d="M5337,11323c-4-3-7-71-7-150v-143l743,2l742,3v145v145l-736,3C5675,11329,5340,11327,5337,11323z"/>
		<path class="st0" d="M6880,11180v-150l738,2l737,3l3,148l3,147h-741h-740V11180z"/>
		<path class="st0" d="M8427,11323c-4-3-7-71-7-150v-143l743,2l742,3l3,148l3,147h-739C8766,11330,8430,11327,8427,11323z"/>
		<path class="st0" d="M9970,11180v-150h250c160,0,250,4,250,10s-88,10-245,10h-245v130v130h245c157,0,245,4,245,10s-90,10-250,10
			h-250V11180z"/>
		<path class="st0" d="M693,10953l697-3v-135v-135l-697-3l-698-2h705h705v140v140H700H-5L693,10953z"/>
		<path class="st0" d="M1466,10944c-3-9-6-74-6-145v-129h745h745v145v145h-739C1546,10960,1472,10958,1466,10944z"/>
		<path class="st0" d="M3010,10815v-145h745h745v145v145h-745h-745V10815z"/>
		<path class="st0" d="M4560,10815v-145h740h740v145v145h-740h-740V10815z"/>
		<path class="st0" d="M6107,10953c-4-3-7-69-7-145v-138h745h745v145v145h-738C6446,10960,6110,10957,6107,10953z"/>
		<path class="st0" d="M7650,10815v-145l741,2l740,3v140v140l-740,3l-741,2V10815z"/>
		<path class="st0" d="M9199,10956c-2-2-3-68-1-145l3-141l637,2l637,3l-632,2l-633,3v135v135l633,3l632,2l-636,3
			C9489,10959,9201,10958,9199,10956z"/>
		<path class="st0" d="M307,10583l313-3v-135v-135l-313-3l-312-2l318-3l317-2v145v145l-317-2l-318-3L307,10583z"/>
		<path class="st0" d="M690,10445v-145h745h745v145v145h-745H690V10445z"/>
		<path class="st0" d="M2240,10445v-145h740h740v145v145h-740h-740V10445z"/>
		<path class="st0" d="M3787,10583c-4-3-7-69-7-145v-138h745h745v145v145h-738C4126,10590,3790,10587,3787,10583z"/>
		<path class="st0" d="M5330,10445v-145l743,2l742,3l3,143l3,142h-746h-745V10445z"/>
		<path class="st0" d="M6880,10445v-145h740h740v145v145h-740h-740V10445z"/>
		<path class="st0" d="M8420,10445v-145h745h745v145v145h-745h-745V10445z"/>
		<path class="st0" d="M9970,10445v-145l253,2l252,3l-247,2l-248,3v135v135l248,3l247,2l-252,3l-253,2V10445z"/>
		<path class="st0" d="M0,10220c0-7,235-10,695-10h695v-130v-130H695c-460,0-695-3-695-10s236-9,703-8l702,3v145v145l-702,3
			C236,10229,0,10227,0,10220z"/>
		<path class="st0" d="M1467,10216c-3-8-5-75-4-148l2-133l743-3l742-2v150v150h-739C1576,10230,1471,10228,1467,10216z"/>
		<path class="st0" d="M3017,10223c-4-3-7-71-7-150v-143l743,2l742,3v145v145l-736,3C3355,10229,3020,10227,3017,10223z"/>
		<path class="st0" d="M4560,10080v-150h740h740v150v150h-740h-740V10080z"/>
		<path class="st0" d="M6107,10223c-4-3-7-71-7-150v-143l743,2l742,3l3,148l3,147h-739C6446,10230,6110,10227,6107,10223z"/>
		<path class="st0" d="M7657,10223c-4-3-7-71-7-150v-143l741,2l740,3v145v145l-734,3C7994,10229,7660,10227,7657,10223z"/>
		<path class="st0" d="M9198,10220c-1-5-2-73,0-150l3-140h635c416,0,634,3,634,10s-217,10-630,10h-630v130v130h630
			c413,0,630,3,630,10C10470,10234,9203,10234,9198,10220z"/>
		<path class="st0" d="M305,9850l310-5l3-132l3-133H310c-203,0-310-4-310-10c0-7,106-9,313-8l312,3l3,148l3,147l-318-2l-318-3
			L305,9850z"/>
		<path class="st0" d="M694,9847c-2-7-3-74-2-148l3-134h740h740l3,148l3,147h-741C841,9860,698,9858,694,9847z"/>
		<path class="st0" d="M2240,9710v-150l738,2l737,3l3,148l3,147h-741h-740V9710z"/>
		<path class="st0" d="M3784,9847c-2-7-3-74-2-148l3-134h740h740l3,148l3,147h-741C3931,9860,3788,9858,3784,9847z"/>
		<path class="st0" d="M5330,9710v-150h733c402,0,738,4,745,8c9,7,12,43,10,148l-3,139l-742,3l-743,2V9710z"/>
		<path class="st0" d="M6880,9710v-150l738,2l737,3l3,148l3,147h-741h-740V9710z"/>
		<path class="st0" d="M8424,9847c-2-7-3-74-2-148l3-134h740h740l3,148l3,147h-741C8571,9860,8428,9858,8424,9847z"/>
		<path class="st0" d="M9970,9710v-150h250c160,0,250,4,250,10s-88,10-245,10h-246l3,133l3,132l245,5l245,6l-252,2l-253,2V9710z"/>
		<path class="st0" d="M693,9483l697-3v-135v-135l-697-3l-698-2h705h705v140v140H700H-5L693,9483z"/>
		<path class="st0" d="M1464,9477c-2-7-3-71-2-143l3-129l743-3l742-2v145v145h-740C1611,9490,1468,9488,1464,9477z"/>
		<path class="st0" d="M3010,9345v-145h745h745v145v145h-745h-745V9345z"/>
		<path class="st0" d="M4560,9345v-145h740h740v145v145h-740h-740V9345z"/>
		<path class="st0" d="M6107,9483c-4-3-7-69-7-145v-138h745h745v145v145h-738C6446,9490,6110,9487,6107,9483z"/>
		<path class="st0" d="M7650,9345v-145h738c406,0,741,2,743,4s3,68,1,145l-3,141h-740h-739V9345z"/>
		<path class="st0" d="M9197,9483c-8-13-9-247-1-266c6-16,50-17,643-15l636,3l-632,2l-633,3v135v135l633,3l632,2l-637,3
			C9488,9489,9199,9487,9197,9483z"/>
		<path class="st0" d="M0,9120c0-6,107-10,310-10h311l-3-132l-3-133l-310-5l-310-5l318-3l318-2l-3,148l-3,147l-312,3
			C106,9129,0,9127,0,9120z"/>
		<path class="st0" d="M697,9124c-4-4-7-72-7-151v-143l743,2l742,3v145v145l-736,3C1035,9129,701,9127,697,9124z"/>
		<path class="st0" d="M2246,9123c-3-3-6-71-6-150v-143h740h740v144c0,123-2,145-16,150C3682,9132,2255,9131,2246,9123z"/>
		<path class="st0" d="M3792,9118c-8-8-12-56-12-150v-138h745h746l-3,148l-3,147l-730,3C3975,9130,3801,9127,3792,9118z"/>
		<path class="st0" d="M5336,9123c-3-3-6-71-6-150v-143l743,2l742,3l3,141c3,140,2,142-20,148C6767,9132,5345,9131,5336,9123z"/>
		<path class="st0" d="M6886,9123c-3-3-6-71-6-150v-143h740h741l-3,148l-3,147l-731,2C7222,9129,6890,9127,6886,9123z"/>
		<path class="st0" d="M8427,9124c-4-4-7-72-7-151v-143l743,2l742,3v145v145l-736,3C8765,9129,8431,9127,8427,9124z"/>
		<path class="st0" d="M9977,9123c-4-3-7-71-7-150v-143l253,2l252,3l-247,2l-248,3v135v135h245c157,0,245,4,245,10
			C10470,9131,9988,9134,9977,9123z"/>
		<path class="st0" d="M0,8750c0-7,235-10,695-10h695v-130v-130H695c-460,0-695-3-695-10s236-9,703-8l702,3v145v145l-702,3
			C236,8759,0,8757,0,8750z"/>
		<path class="st0" d="M1467,8746c-3-8-5-75-4-148l2-133h740h740l3,148l3,147h-740C1576,8760,1471,8758,1467,8746z"/>
		<path class="st0" d="M3017,8753c-4-3-7-71-7-150v-143l743,2l742,3l3,148l3,147h-739C3356,8760,3020,8757,3017,8753z"/>
		<path class="st0" d="M4560,8610v-150l738,2l737,3l3,148l3,147h-741h-740V8610z"/>
		<path class="st0" d="M6104,8747c-2-7-3-74-2-148l3-134h740h740l3,148l3,147h-741C6251,8760,6108,8758,6104,8747z"/>
		<path class="st0" d="M7650,8610v-150h739h740l3,146c2,80,1,148-1,150s-337,4-743,4h-738V8610z"/>
		<path class="st0" d="M9197,8747c-7-20-9-251-1-270c6-16,51-17,640-17c416,0,634,3,634,10s-217,10-630,10h-630v130v130h630
			c413,0,630,3,630,10C10470,8766,9203,8764,9197,8747z"/>
		<path class="st0" d="M307,8383l313-3v-135v-135l-313-3l-312-2l318-3l317-2v145v145l-317-2l-318-3L307,8383z"/>
		<path class="st0" d="M694,8377c-7-20,0-277,9-277c4,0,338,0,742,0h735v145v145h-740C841,8390,698,8388,694,8377z"/>
		<path class="st0" d="M2240,8245v-145h740h740v145v145h-740h-740V8245z"/>
		<path class="st0" d="M3787,8383c-4-3-7-69-7-145v-138h745h745v145v145h-738C4126,8390,3790,8387,3787,8383z"/>
		<path class="st0" d="M5330,8245v-145l735-2c404-2,740-1,745,0c6,2,10,61,10,148v144h-745h-745V8245z"/>
		<path class="st0" d="M6880,8245v-145h740h740v145v145h-740h-740V8245z"/>
		<path class="st0" d="M8424,8377c-7-20,0-277,9-277c4,0,338,0,742,0h735v145v145h-740C8571,8390,8428,8388,8424,8377z"/>
		<path class="st0" d="M9970,8245v-145l253,2l252,3l-247,2l-248,3v135v135l248,3l247,2l-252,3l-253,2V8245z"/>
		<path class="st0" d="M693,8013l697-3v-135v-135l-697-3l-698-2h705h705l3,143l3,142l-708-2l-708-3L693,8013z"/>
		<path class="st0" d="M1464,8007c-2-7-3-71-2-143l3-129l743-3l742-2v145v145h-740C1611,8020,1468,8018,1464,8007z"/>
		<path class="st0" d="M3010,7875v-145l743,2l742,3l3,143l3,142h-746h-745V7875z"/>
		<path class="st0" d="M4560,7875v-145h740h740v145v145h-740h-740V7875z"/>
		<path class="st0" d="M6107,8013c-4-3-7-69-7-145v-138h745h745v145v145h-738C6446,8020,6110,8017,6107,8013z"/>
		<path class="st0" d="M7650,7875v-145l741,2l740,3l2,143l2,142h-742h-743V7875z"/>
		<path class="st0" d="M9197,8013c-8-13-9-247-1-266c6-16,50-17,643-15l636,3l-632,2l-633,3v135v135l633,3l632,2l-637,3
			C9488,8019,9199,8017,9197,8013z"/>
		<path class="st0" d="M0,7650c0-6,110-10,310-10h311l-3-132l-3-133l-310-5l-310-5l318-3l317-2v150v150H315C112,7660,0,7656,0,7650z
			"/>
		<path class="st0" d="M697,7653c-4-3-7-71-7-150v-143l743,2l742,3v145v145l-736,3C1035,7659,700,7657,697,7653z"/>
		<path class="st0" d="M2247,7653c-4-3-7-71-7-150v-143h740h740v150v150h-733C2583,7660,2250,7657,2247,7653z"/>
		<path class="st0" d="M3784,7647c-2-7-3-74-2-148l3-134h740h740l3,148l3,147h-741C3931,7660,3788,7658,3784,7647z"/>
		<path class="st0" d="M5337,7653c-4-3-7-71-7-150v-143l743,2l742,3v145v145l-736,3C5675,7659,5340,7657,5337,7653z"/>
		<path class="st0" d="M6880,7510v-150h740h740v150v150h-740h-740V7510z"/>
		<path class="st0" d="M8427,7653c-4-3-7-71-7-150v-143l743,2l742,3v145v145l-736,3C8765,7659,8430,7657,8427,7653z"/>
		<path class="st0" d="M9977,7653c-4-3-7-71-7-150v-143l253,2l252,2l-245,6l-245,5l-3,133l-3,132h246c157,0,245,4,245,10
			C10470,7661,9988,7664,9977,7653z"/>
		<path class="st0" d="M693,7283l697-3v-135v-135H695c-457,0-695-3-695-10s238-10,694-10c579,0,695,2,705,14c8,9,11,57,9,147l-3,134
			H700H-5L693,7283z"/>
		<path class="st0" d="M1465,7267c-4-13-5-80-3-148l3-124h740h740l3,148l3,147h-741h-740L1465,7267z"/>
		<path class="st0" d="M3014,7277c-2-7-3-74-2-148l3-134h740h740l3,148l3,147h-741C3161,7290,3018,7288,3014,7277z"/>
		<path class="st0" d="M4560,7140v-150l738,2l737,3l3,148l3,147h-741h-740V7140z"/>
		<path class="st0" d="M6104,7277c-2-7-3-74-2-148l3-134h740h740l3,148l3,147h-741C6251,7290,6108,7288,6104,7277z"/>
		<path class="st0" d="M7650,7140v-150h734c404,0,737,4,740,8c3,5,6,71,7,148l1,139l-741,3l-741,2V7140z"/>
		<path class="st0" d="M9196,7274c-8-20-8-232,0-261l6-23h634c416,0,634,3,634,10s-217,10-630,10h-630v135v135l633,3l632,2l-636,3
			C9266,7290,9202,7288,9196,7274z"/>
		<path class="st0" d="M307,6913l313-3v-135v-135l-313-3l-312-2l318-3l317-2v145v145l-317-2l-318-3L307,6913z"/>
		<path class="st0" d="M690,6775v-145h745h745v145v145h-745H690V6775z"/>
		<path class="st0" d="M2240,6775v-145h740h740v145v145h-740h-740V6775z"/>
		<path class="st0" d="M3787,6913c-4-3-7-69-7-145v-138h745h745v145v145h-738C4126,6920,3790,6917,3787,6913z"/>
		<path class="st0" d="M5330,6775v-145l743,2l742,3l3,143l3,142h-746h-745V6775z"/>
		<path class="st0" d="M6880,6775v-145h740h740v145v145h-740h-740V6775z"/>
		<path class="st0" d="M8420,6775v-145h745h745v145v145h-745h-745V6775z"/>
		<path class="st0" d="M9970,6775v-145l253,2l252,3l-247,2l-248,3v135v135l248,3l247,2l-252,3l-253,2V6775z"/>
		<path class="st0" d="M0,6550c0-7,235-10,695-10h695v-145v-145l-697-3l-698-2h705h705v155v155l-702,3C236,6559,0,6557,0,6550z"/>
		<path class="st0" d="M9205,6551c-6-6-9-74-7-160l3-151l637,2l637,3l-632,2l-633,3v145v145h630c413,0,630,3,630,10
			C10470,6563,9218,6564,9205,6551z"/>
		<path class="st0" d="M1467,6543c-4-3-7-73-7-155v-148h745h745v155v155h-738C1806,6550,1470,6547,1467,6543z"/>
		<path class="st0" d="M3010,6395v-155h745h745v155v155h-745h-745V6395z"/>
		<path class="st0" d="M4560,6395v-155h740h740v155v155h-740h-740V6395z"/>
		<path class="st0" d="M6100,6395v-155h745h745v155v155h-745h-745V6395z"/>
		<path class="st0" d="M7650,6395v-155l741,2l740,3l2,153l2,152h-742h-743V6395z"/>
		<path class="st0" d="M307,6153l313-3v-135v-135l-313-3l-312-2l318-3l317-2v145v145l-317-2l-318-3L307,6153z"/>
		<path class="st0" d="M690,6015v-145h745h745v145v145h-745H690V6015z"/>
		<path class="st0" d="M2240,6015v-145h740h740v145v145h-740h-740V6015z"/>
		<path class="st0" d="M3787,6153c-4-3-7-69-7-145v-138h745h745v145v145h-738C4126,6160,3790,6157,3787,6153z"/>
		<path class="st0" d="M5330,6015v-145l743,2l742,3l3,143l3,142h-746h-745V6015z"/>
		<path class="st0" d="M6880,6015v-145h740h740v145v145h-740h-740V6015z"/>
		<path class="st0" d="M8420,6015v-145h745h745v145v145h-745h-745V6015z"/>
		<path class="st0" d="M9970,6015v-145l253,2l252,3l-247,2l-248,3v135v135l248,3l247,2l-252,3l-253,2V6015z"/>
		<path class="st0" d="M0,5790c0-7,235-10,695-10h695v-130v-130H695c-460,0-695-3-695-10s236-9,703-8l702,3v145v145l-702,3
			C236,5799,0,5797,0,5790z"/>
		<path class="st0" d="M1465,5778c-3-13-4-79-3-148l3-125h740h740l3,148l3,147h-741h-740L1465,5778z"/>
		<path class="st0" d="M3017,5793c-4-3-7-71-7-150v-143l743,2l742,3v145v145l-736,3C3355,5799,3020,5797,3017,5793z"/>
		<path class="st0" d="M4560,5650v-150h740h740v150v150h-740h-740V5650z"/>
		<path class="st0" d="M6107,5793c-4-3-7-71-7-150v-143l743,2l742,3l3,148l3,147h-739C6446,5800,6110,5797,6107,5793z"/>
		<path class="st0" d="M7657,5793c-4-3-7-71-7-150v-143l741,2l740,3v145v145l-734,3C7994,5799,7660,5797,7657,5793z"/>
		<path class="st0" d="M9198,5790c-1-5-2-73,0-150l3-140h635c416,0,634,3,634,10s-217,10-630,10h-630v130v130h630
			c413,0,630,3,630,10C10470,5804,9203,5804,9198,5790z"/>
		<path class="st0" d="M307,5423l313-3v-135v-135H310c-203,0-310-4-310-10c0-7,106-9,313-8l312,3l3,148l3,147l-318-2l-318-3
			L307,5423z"/>
		<path class="st0" d="M694,5417c-2-7-3-74-2-148l3-134l720-3c396-1,730,0,743,3c22,5,22,8,22,150v145h-740
			C841,5430,698,5428,694,5417z"/>
		<path class="st0" d="M2240,5280v-150l738,2l737,3l3,148l3,147h-741h-740V5280z"/>
		<path class="st0" d="M3784,5417c-2-7-3-74-2-148l3-134h740h740l3,148l3,147h-741C3931,5430,3788,5428,3784,5417z"/>
		<path class="st0" d="M5332,5283l3-148l720-3c396-1,730,0,743,3c22,5,22,8,22,150v145h-745h-746L5332,5283z"/>
		<path class="st0" d="M6880,5280v-150l738,2l737,3l3,148l3,147h-741h-740V5280z"/>
		<path class="st0" d="M8424,5417c-2-7-3-74-2-148l3-134l720-3c396-1,730,0,743,3c22,5,22,8,22,150v145h-740
			C8571,5430,8428,5428,8424,5417z"/>
		<path class="st0" d="M9972,5283l3-148l248-3c162-1,247,1,247,8c0,6-86,10-245,10h-246l3,133l3,132l245,5l245,6l-253,2l-253,2
			L9972,5283z"/>
		<path class="st0" d="M693,5053l697-3v-135v-135l-697-3l-698-2h705h705l3,143l3,142l-708-2l-708-3L693,5053z"/>
		<path class="st0" d="M1464,5047c-2-7-3-71-2-143l3-129l743-3l742-2v145v145h-740C1611,5060,1468,5058,1464,5047z"/>
		<path class="st0" d="M3010,4915v-145h745h745v145v145h-745h-745V4915z"/>
		<path class="st0" d="M4560,4915v-145h740h740v145v145h-740h-740V4915z"/>
		<path class="st0" d="M6107,5053c-4-3-7-69-7-145v-138h745h745v145v145h-738C6446,5060,6110,5057,6107,5053z"/>
		<path class="st0" d="M7650,4915v-145h738c406,0,741,2,743,4s3,68,1,145l-3,141h-740h-739V4915z"/>
		<path class="st0" d="M9199,5056c-2-2-3-68-1-145l3-141l637,2l637,3l-632,2l-633,3v135v135l633,3l632,2l-636,3
			C9489,5059,9201,5058,9199,5056z"/>
		<path class="st0" d="M0,4690c0-6,110-10,310-10h311l-3-132l-3-133l-310-5l-310-5l318-3l317-2v150v150H315C112,4700,0,4696,0,4690z
			"/>
		<path class="st0" d="M697,4693c-4-3-7-71-7-150v-143l743,2l742,3v145v145l-736,3C1035,4699,700,4697,697,4693z"/>
		<path class="st0" d="M2247,4693c-4-3-7-71-7-150v-143h740h740v150v150h-733C2583,4700,2250,4697,2247,4693z"/>
		<path class="st0" d="M3786,4684c-3-8-6-76-6-150v-134h745h746l-3,148l-3,147l-736,3C3864,4700,3792,4699,3786,4684z"/>
		<path class="st0" d="M5337,4693c-4-3-7-71-7-150v-143l743,2l742,3v145v145l-736,3C5675,4699,5340,4697,5337,4693z"/>
		<path class="st0" d="M6887,4693c-4-3-7-71-7-150v-143h740h740v150v150h-733C7223,4700,6890,4697,6887,4693z"/>
		<path class="st0" d="M8427,4693c-4-3-7-71-7-150v-143l743,2l742,3v145v145l-736,3C8765,4699,8430,4697,8427,4693z"/>
		<path class="st0" d="M9977,4693c-4-3-7-71-7-150v-143l253,2l252,2l-245,6l-245,5l-3,133l-3,132h246c157,0,245,4,245,10
			C10470,4701,9988,4704,9977,4693z"/>
		<path class="st0" d="M0,4320c0-7,235-10,695-10h695v-130v-130H695c-460,0-695-3-695-10s236-9,703-8l702,3v145v145l-702,3
			C236,4329,0,4327,0,4320z"/>
		<path class="st0" d="M1465,4308c-3-13-4-79-3-148l3-125h740h740l3,148l3,147h-741h-740L1465,4308z"/>
		<path class="st0" d="M3017,4323c-4-3-7-71-7-150v-143l743,2l742,3l3,148l3,147h-739C3356,4330,3020,4327,3017,4323z"/>
		<path class="st0" d="M4560,4180v-150l738,2l737,3l3,148l3,147h-741h-740V4180z"/>
		<path class="st0" d="M6104,4317c-2-7-3-74-2-148l3-134h740h740l3,148l3,147h-741C6251,4330,6108,4328,6104,4317z"/>
		<path class="st0" d="M7650,4180v-150h739h740l3,146c2,80,1,148-1,150s-337,4-743,4h-738V4180z"/>
		<path class="st0" d="M9198,4320c-1-5-2-73,0-150l3-140h635c416,0,634,3,634,10s-217,10-630,10h-630v130v130h630
			c413,0,630,3,630,10C10470,4334,9203,4334,9198,4320z"/>
		<path class="st0" d="M307,3953l313-3v-135v-135l-313-3l-312-2l318-3l317-2v145v145l-317-2l-318-3L307,3953z"/>
		<path class="st0" d="M697,3953c-4-3-7-69-7-145v-138h745h745v145v145h-738C1036,3960,700,3957,697,3953z"/>
		<path class="st0" d="M2240,3815v-145h740h740v145v145h-740h-740V3815z"/>
		<path class="st0" d="M3787,3953c-4-3-7-69-7-145v-138h745h745v145v145h-738C4126,3960,3790,3957,3787,3953z"/>
		<path class="st0" d="M5330,3815v-145h745h745v145v145h-745h-745V3815z"/>
		<path class="st0" d="M6880,3815v-145h740h740v145v145h-740h-740V3815z"/>
		<path class="st0" d="M8427,3953c-4-3-7-69-7-145v-138h745h745v145v145h-738C8766,3960,8430,3957,8427,3953z"/>
		<path class="st0" d="M9970,3815v-145l253,2l252,3l-247,2l-248,3v135v135l248,3l247,2l-252,3l-253,2V3815z"/>
		<path class="st0" d="M693,3583l697-3v-135v-135l-697-3l-698-2h705h705l3,143l3,142l-708-2l-708-3L693,3583z"/>
		<path class="st0" d="M1464,3577c-2-7-3-71-2-143l3-129l743-3l742-2v145v145h-740C1611,3590,1468,3588,1464,3577z"/>
		<path class="st0" d="M3010,3445v-145l743,2l742,3l3,143l3,142h-746h-745V3445z"/>
		<path class="st0" d="M4560,3445v-145h740h740v145v145h-740h-740V3445z"/>
		<path class="st0" d="M6100,3445v-145h745h745v145v145h-745h-745V3445z"/>
		<path class="st0" d="M7650,3445v-145l741,2l740,3l2,143l2,142h-742h-743V3445z"/>
		<path class="st0" d="M9199,3586c-2-2-3-68-1-145l3-141l637,2l637,3l-632,2l-633,3v135v135l633,3l632,2l-636,3
			C9489,3589,9201,3588,9199,3586z"/>
		<path class="st0" d="M0,3220c0-6,110-10,310-10h310v-130v-130H310c-200,0-310-4-310-10s112-10,315-10h315v150v150H315
			C112,3230,0,3226,0,3220z"/>
		<path class="st0" d="M697,3223c-4-3-7-71-7-150v-143l743,2l742,3l3,148l3,147h-739C1036,3230,700,3227,697,3223z"/>
		<path class="st0" d="M2247,3223c-4-3-7-71-7-150v-143h740h740v150v150h-733C2583,3230,2250,3227,2247,3223z"/>
		<path class="st0" d="M3784,3217c-2-7-3-74-2-148l3-134h740h740l3,148l3,147h-741C3931,3230,3788,3228,3784,3217z"/>
		<path class="st0" d="M5337,3223c-4-3-7-71-7-150v-143l743,2l742,3v145v145l-736,3C5675,3229,5340,3227,5337,3223z"/>
		<path class="st0" d="M6880,3080v-150h740h740v150v150h-740h-740V3080z"/>
		<path class="st0" d="M8427,3223c-4-3-7-71-7-150v-143l743,2l742,3v145v145l-736,3C8765,3229,8430,3227,8427,3223z"/>
		<path class="st0" d="M9977,3223c-4-3-7-71-7-150v-143h250c160,0,250,4,250,10s-88,10-245,10h-245v130v130h245c157,0,245,4,245,10
			C10470,3231,9988,3234,9977,3223z"/>
		<path class="st0" d="M693,2853l697-3v-135v-135H695c-457,0-695-3-695-10s238-10,694-10c579,0,695,2,705,14c8,9,11,57,9,147l-3,134
			H700H-5L693,2853z"/>
		<path class="st0" d="M1465,2838c-3-13-4-79-3-148l3-125h740h740l3,148l3,147h-741h-740L1465,2838z"/>
		<path class="st0" d="M3014,2847c-2-7-3-74-2-148l3-134l720-3c396-1,730,0,743,3c22,5,22,8,22,150v145h-740
			C3161,2860,3018,2858,3014,2847z"/>
		<path class="st0" d="M4560,2710v-150l738,2l737,3l3,148l3,147h-741h-740V2710z"/>
		<path class="st0" d="M6104,2847c-2-7-3-74-2-148l3-134h740h740l3,148l3,147h-741C6251,2860,6108,2858,6104,2847z"/>
		<path class="st0" d="M7650,2710v-150h734c404,0,737,4,740,8c3,5,6,71,7,148l1,139l-741,3l-741,2V2710z"/>
		<path class="st0" d="M9197,2853c-9-8-9-240-1-270l6-23h634c416,0,634,3,634,10s-217,10-630,10h-630v135v135l633,3l632,2l-636,3
			C9489,2859,9200,2857,9197,2853z"/>
		<path class="st0" d="M307,2483l313-3v-135v-135l-313-3l-312-2l318-3l317-2v145v145l-317-2l-318-3L307,2483z"/>
		<path class="st0" d="M690,2345v-145h745h745v145v145h-745H690V2345z"/>
		<path class="st0" d="M2240,2345v-145h740h740v145v145h-740h-740V2345z"/>
		<path class="st0" d="M3787,2483c-4-3-7-69-7-145v-138h745h745v145v145h-738C4126,2490,3790,2487,3787,2483z"/>
		<path class="st0" d="M5330,2345v-145l743,2l742,3l3,143l3,142h-746h-745V2345z"/>
		<path class="st0" d="M6880,2345v-145h740h740v145v145h-740h-740V2345z"/>
		<path class="st0" d="M8420,2345v-145h745h745v145v145h-745h-745V2345z"/>
		<path class="st0" d="M9970,2345v-145l253,2l252,3l-247,2l-248,3v135v135l248,3l247,2l-252,3l-253,2V2345z"/>
		<path class="st0" d="M0,2120c0-7,235-10,695-10h695v-135v-135l-697-3l-698-2h705h705v145v145l-702,3C236,2129,0,2127,0,2120z"/>
		<path class="st0" d="M1471,2116c-8-9-11-57-9-147l3-134l743-3l743-2l-3,147l-3,148l-731,3C1598,2130,1481,2128,1471,2116z"/>
		<path class="st0" d="M3017,2123c-4-3-7-71-7-150v-143l743,2l742,3v145v145l-736,3C3355,2129,3020,2127,3017,2123z"/>
		<path class="st0" d="M4567,2123c-4-3-7-71-7-150v-143h740h740v150v150h-733C4903,2130,4570,2127,4567,2123z"/>
		<path class="st0" d="M6107,2123c-4-3-7-71-7-150v-143h745h746l-3,148l-3,147l-736,3C6445,2129,6110,2127,6107,2123z"/>
		<path class="st0" d="M7657,2123c-4-3-7-71-7-150v-143l741,2l740,3v145v145l-734,3C7994,2129,7660,2127,7657,2123z"/>
		<path class="st0" d="M9202,2118c-11-14-17-244-6-271c6-16,50-17,643-15l636,3l-632,2l-633,3v135v135h630c413,0,630,3,630,10
			C10470,2136,9215,2134,9202,2118z"/>
		<path class="st0" d="M0,1750c0-6,110-10,310-10h310v-130v-130H310c-203,0-310-4-310-10c0-7,106-9,313-8l312,3l3,148l3,147H315
			C112,1760,0,1756,0,1750z"/>
		<path class="st0" d="M697,1753c-4-3-7-71-7-150v-143l743,2l742,3l3,148l3,147h-739C1036,1760,700,1757,697,1753z"/>
		<path class="st0" d="M2240,1610v-150h740h740v150v150h-740h-740V1610z"/>
		<path class="st0" d="M3784,1747c-2-7-3-74-2-148l3-134h740h740l3,148l3,147h-741C3931,1760,3788,1758,3784,1747z"/>
		<path class="st0" d="M5337,1753c-4-3-7-71-7-150v-143l743,2l742,3v145v145l-736,3C5675,1759,5340,1757,5337,1753z"/>
		<path class="st0" d="M6880,1610v-150l738,2l737,3l3,148l3,147h-741h-740V1610z"/>
		<path class="st0" d="M8427,1753c-4-3-7-71-7-150v-143l743,2l742,3l3,148l3,147h-739C8766,1760,8430,1757,8427,1753z"/>
		<path class="st0" d="M9970,1610v-150h250c160,0,250,4,250,10s-88,10-245,10h-245v130v130h245c157,0,245,4,245,10s-90,10-250,10
			h-250V1610z"/>
		<path class="st0" d="M693,1383l697-3v-135v-135l-697-3l-698-2h705h705v140v140H700H-5L693,1383z"/>
		<path class="st0" d="M1466,1374c-3-9-6-74-6-145v-129h745h745v145v145h-739C1546,1390,1472,1388,1466,1374z"/>
		<path class="st0" d="M3010,1245v-145h745h745v145v145h-745h-745V1245z"/>
		<path class="st0" d="M4560,1245v-145h740h740v145v145h-740h-740V1245z"/>
		<path class="st0" d="M6107,1383c-4-3-7-69-7-145v-138h745h745v145v145h-738C6446,1390,6110,1387,6107,1383z"/>
		<path class="st0" d="M7650,1245v-145h738c406,0,741,2,743,4s3,68,1,145l-3,141h-740h-739V1245z"/>
		<path class="st0" d="M9197,1383c-9-8-9-246-1-267c6-14,70-16,643-14l636,3l-632,2l-633,3v135v135l633,3l632,2l-636,3
			C9489,1389,9200,1387,9197,1383z"/>
		<path class="st0" d="M307,1013l313-3V875V740l-313-3l-312-2l318-3l317-2v145v145l-317-2l-318-3L307,1013z"/>
		<path class="st0" d="M690,875V730h745h745v145v145h-745H690V875z"/>
		<path class="st0" d="M2240,875V730h740h740v145v145h-740h-740V875z"/>
		<path class="st0" d="M3787,1013c-4-3-7-69-7-145V730h745h745v145v145h-738C4126,1020,3790,1017,3787,1013z"/>
		<path class="st0" d="M5330,875V730l743,2l742,3l3,143l3,142h-746h-745V875z"/>
		<path class="st0" d="M6880,875V730h740h740v145v145h-740h-740V875z"/>
		<path class="st0" d="M8420,875V730h745h745v145v145h-745h-745V875z"/>
		<path class="st0" d="M9970,875V730l253,2l252,3l-247,2l-248,3v135v135l248,3l247,2l-252,3l-253,2V875z"/>
		<path class="st0" d="M0,650c0-7,235-10,695-10h695V510V380H695c-460,0-695-3-695-10s236-9,703-8l702,3v145v145l-702,3
			C236,659,0,657,0,650z"/>
		<path class="st0" d="M1465,638c-3-13-4-79-3-148l3-125l743-3l742-2v150v150h-740h-740L1465,638z"/>
		<path class="st0" d="M3017,653c-4-3-7-71-7-150V360l743,2l742,3v145v145l-736,3C3355,659,3020,657,3017,653z"/>
		<path class="st0" d="M4560,510V360h740h740v150v150h-740h-740V510z"/>
		<path class="st0" d="M6107,653c-4-3-7-71-7-150V360l743,2l742,3l3,148l3,147h-739C6446,660,6110,657,6107,653z"/>
		<path class="st0" d="M7657,653c-4-3-7-71-7-150V360l741,2l740,3v145v145l-734,3C7994,659,7660,657,7657,653z"/>
		<path class="st0" d="M9197,647c-7-20-9-251-1-270c6-16,51-17,640-17c416,0,634,3,634,10s-217,10-630,10h-630v130v130h630
			c413,0,630,3,630,10C10470,666,9203,664,9197,647z"/>
		<path class="st0" d="M305,280l310-5l3-132l3-133L308,7L-5,5l318-3l317-2v145v145l-317-2l-318-3L305,280z"/>
		<path class="st0" d="M697,283c-4-3-7-69-7-145V0h745h745v145v145h-738C1036,290,700,287,697,283z"/>
		<path class="st0" d="M2240,145V0h740h740v145v145h-740h-740V145z"/>
		<path class="st0" d="M3787,283c-4-3-7-69-7-145V0h745h745v145v145h-738C4126,290,3790,287,3787,283z"/>
		<path class="st0" d="M5330,145V0h745h746l-3,143l-3,142l-742,3l-743,2V145z"/>
		<path class="st0" d="M6880,145V0h740h740v145v145h-740h-740V145z"/>
		<path class="st0" d="M8427,283c-4-3-7-69-7-145V0h745h745v145v145h-738C8766,290,8430,287,8427,283z"/>
		<path class="st0" d="M9970,145V0l253,2l252,3l-248,2l-248,3l3,133l3,132l245,5l245,6l-252,2l-253,2V145z"/>
	</g>
</g>
<g id="_x3C__x21_--_Generator:_Adobe_Illustrator_23.0.2_x2C__SVG_Export_Plug-In__--_x3E_">
	<path class="st1" d="M846.4,2.6c-5.8,2.2-30.1,5.9-38.6,5.7c-2,0-7.9,1.1-13.2,2.6c-5.2,1.3-13.2,2.4-17.7,2.6
		c-4.4,0-9.4,0.6-11,1.2c-1.6,0.7-8.5,1.7-15.1,2.1c-10,0.6-14.3,1.5-22.9,4.8c-5.8,2.2-15.1,5.3-20.6,6.7s-13.3,4-17.5,5.7
		c-4,1.6-9.3,3.4-11.6,3.9c-2.3,0.6-8.9,2.4-14.7,4.2c-5.7,1.7-14.6,3.9-19.8,5c-5.2,1-10.3,2.3-11.3,2.9
		c-5.6,3.4-14.2,5.3-21.6,4.4c-9.3-1-21,1.2-36.3,6.7c-5.8,2.1-15.6,5.1-21.7,6.6c-6.8,1.7-14.2,4.6-18.8,7.3
		c-5.8,3.4-10,4.8-16.1,5.6c-17.1,2.2-20.9,4.6-29.9,19c-6.6,10.3-9.6,18.1-9.4,23.6c0.1,3.2-3.6,9.4-5.5,9.4
		c-0.7,0-1.4,1.7-1.6,3.7c-1,13.5-1.4,15.2-5.6,19.6c-2.2,2.3-4.1,4.8-4.1,5.5c0,0.6-0.4,1.2-1.1,1.2c-0.5,0-1.1,0.6-1.1,1.3
		s-0.7,2.1-1.6,3.1c-0.8,1.1-1.6,3.7-1.6,5.9s-0.7,5-1.6,6.4c-2,3.2-2,11.4,0.2,16.4c1.1,2.7,1.8,7.6,1.9,14.1
		c0.1,5.5,0.5,10.6,1,11.4c1.9,3.5,1.4,10.9-1.1,16.5c-1.4,3.2-2.6,7.2-2.8,9.2c-0.1,1.8-0.6,4-1.3,4.9c-0.7,1.2,0.4,3.2,4.8,7.7
		c3.2,3.3,6.4,6,7.1,6s4.4,1.7,8.2,3.7c5.1,2.8,7,4.5,7.5,6.7c0.3,1.7,1.3,3.5,2,4c2.8,1.7,7.8,10.3,7.2,12c-1,2.8,1.8,5.6,4.8,4.8
		c2-0.6,3.4,0.1,5.9,2.9c3.1,3.4,12.7,7.5,17.8,7.5c2.8,0,7.2,3.5,7.2,5.7c0,1.1,1.5,3.8,3.2,6.1c1.8,2.2,3.2,4.9,3.2,5.9
		c0,2.9,3.6,4.3,7.5,3.1c2.9-1,3.9-0.7,5.6,1.1c2.9,2.9,12.4,5.5,17.1,4.6c3.8-0.7,3.5-1.1,11.4,11.5c2,3.2,3.8,6.7,4,7.9
		c0.2,1.5,1.4,2.4,3.3,2.7c1.7,0.2,3.3,1.2,3.6,2.2c0.3,1,2,1.7,4.3,1.7c2,0,4.7,1,5.7,2.1c1.4,1.5,3.6,2.1,6.9,1.8
		c3.9-0.1,5.3,0.4,7.6,3.2c4.3,5,11.1,10,13.4,10c1.1,0,4.9,1.3,8.4,3.1c5.2,2.4,8.2,3.1,16.2,3.1c5.7,0,11.2,0.7,13.2,1.6
		c1.9,1,6.2,1.8,9.7,2c3.5,0.1,9,0.4,12.2,0.6c3.2,0.1,8.7-0.7,12.2-1.8c3.5-1.2,9.2-2.4,12.7-2.9c3.5-0.4,7.3-1.5,8.6-2.4
		c4.1-3.1,29.7-0.7,34.2,3.3c1.4,1.2,4.1,2.2,6.2,2.2c3.8,0,16.5,2.2,19.3,3.4c0.8,0.4,4.7,0.7,8.3,1c4.6,0.2,7.4,1,8.7,2.3
		c1.2,1.2,2.8,1.8,3.8,1.3c1.1-0.5,2.2-0.1,2.6,0.6c0.4,0.7,3.2,1.7,6.1,2.1c4.6,0.5,5.9,0.1,7.9-2.1c2.2-2.4,3.4-2.6,17.7-2.3
		c8.4,0,16.2-0.1,17.4-0.5s3.7,0.4,5.6,1.8c3.2,2.2,4.8,2.3,14.8,1.6c9.2-0.6,11.8-0.4,13.4,1.1c2.2,2,12.9,1.7,22.8-0.7
		c2.6-0.6,8.8-1.2,13.8-1.3c5-0.1,9.3-0.7,9.6-1.3c1-1.5,24.2-2.1,24.2-0.7c0,0.6,1.1,1.1,2.3,1.1s5.3,0.9,9.1,2
		c3.7,1.1,7,1.6,7.3,1.2s1-4.2,1.3-8.3l0.6-7.7l3.9-0.4c4.1-0.4,5.3-2.4,6.7-11.5c0.3-2.7,1.5-5.1,2.5-5.9
		c2.1-1.2,6.5-10.5,6.5-13.7c0-1.1,1.6-6,3.6-11c1.9-4.9,3.8-9.9,4.1-11.1c0.5-1.5,1.8-2.1,4.7-2.1c3.6,0,4.2-0.5,5.3-3.7
		c0.7-2.3,1.9-3.7,3.2-3.7c1.1,0,3.8-1.1,6.1-2.4c2.3-1.3,4.8-2.4,5.5-2.4c2,0,4.9-8.1,4.3-12.2c-0.3-2.1-0.1-4,0.4-4.4
		c0.4-0.4,0.8-2,0.8-3.7s0.6-3.3,1.5-3.7c1.3-0.5,1.1-1.7-1.1-6.4c-3.6-8.2-4-23.6-0.6-27.3c1.7-1.7,2.3-3.9,2.3-7.6
		c0-2.8,0.6-10.2,1.5-16.1c0.8-6.1,1.6-13.8,1.6-17.2c0.1-11.7,2.8-21.2,7.4-26.7c3.8-4.5,4.2-5.6,4.3-11.7
		c0.2-9.7-1.7-27.8-3.6-34.9c-1-3.4-2.2-9.4-2.9-13.3c-2-13.2-12.8-32.8-23.7-43.3c-1-1-1.6-3.5-1.6-6.5c0-6.2-2.5-11.3-7.5-15.3
		c-2.2-1.7-4.7-5.3-5.8-8.2c-2.6-7-7.8-14.3-10.1-14.3c-2,0-3.1-2.3-3.1-6.6c0-1.6-0.8-3.8-2-4.9c-2-2.1-2.6-2.3-11.9-3.8
		c-2.8-0.4-5.8-1.5-6.9-2.3c-1.1-1-2.5-1.5-3.2-1.1c-2.2,1-24.2-4.4-28.6-7c-5.5-3.3-12.5-3.2-15.3,0.1c-1.9,2.2-3,2.4-10.8,1.8
		c-4.8-0.5-12.7-1.1-17.7-1.5c-7-0.5-9.4-1.2-10.9-3.1c-1.4-1.7-3.3-2.3-7-2.3s-5.6-0.6-6.9-2.3c-1.9-2.4-10.3-6.4-13.2-6.1
		C853.5,0.2,849.9,1.3,846.4,2.6z"/>
	<path class="st1" d="M406.6,370.3c-5.8,2.2-30.1,5.9-38.6,5.7c-2,0-7.9,1.1-13.2,2.6c-5.2,1.3-13.2,2.4-17.7,2.6
		c-4.4,0-9.4,0.6-11,1.2c-1.6,0.7-8.5,1.7-15.1,2.1c-10,0.6-14.3,1.5-22.9,4.8c-5.8,2.2-15.1,5.3-20.6,6.7c-5.5,1.5-13.3,4-17.5,5.7
		c-4,1.6-9.3,3.4-11.6,3.9c-2.3,0.6-8.9,2.4-14.7,4.2c-5.7,1.7-14.6,3.9-19.8,5c-5.2,1-10.3,2.3-11.3,2.9
		c-5.6,3.4-14.2,5.3-21.6,4.4c-9.3-1-21,1.2-36.3,6.7c-5.8,2.1-15.6,5.1-21.7,6.6c-6.8,1.7-14.2,4.6-18.8,7.3
		c-5.8,3.4-10,4.8-16.1,5.6c-17.1,2.2-20.9,4.6-29.9,19c-6.6,10.3-9.6,18.1-9.4,23.6c0.1,3.2-3.6,9.4-5.5,9.4
		c-0.7,0-1.4,1.7-1.6,3.7c-1,13.5-1.4,15.2-5.6,19.6c-2.2,2.3-4.1,4.8-4.1,5.5c0,0.6-0.4,1.2-1.1,1.2c-0.5,0-1.1,0.6-1.1,1.3
		s-0.7,2.1-1.6,3.1c-0.8,1.1-1.6,3.7-1.6,5.9s-0.7,5-1.6,6.4c-2,3.2-2,11.4,0.2,16.4c1.1,2.7,1.8,7.6,1.9,14.1
		c0.1,5.5,0.5,10.6,1,11.4c1.9,3.5,1.4,10.9-1.1,16.5c-1.4,3.2-2.6,7.2-2.8,9.2c-0.1,1.8-0.6,4-1.3,4.9c-0.7,1.2,0.4,3.2,4.8,7.7
		c3.2,3.3,6.4,6,7.1,6c0.7,0,4.4,1.7,8.2,3.7c5.1,2.8,7,4.5,7.5,6.7c0.3,1.7,1.3,3.5,2,4c2.8,1.7,7.8,10.3,7.2,12
		c-1,2.8,1.8,5.6,4.8,4.8c2-0.6,3.4,0.1,5.9,2.9c3.1,3.4,12.7,7.5,17.8,7.5c2.8,0,7.2,3.5,7.2,5.7c0,1.1,1.5,3.8,3.2,6.1
		c1.8,2.2,3.2,4.9,3.2,5.9c0,2.9,3.6,4.3,7.5,3.1c2.9-1,3.9-0.7,5.6,1.1c2.9,2.9,12.4,5.5,17.1,4.6c3.8-0.7,3.5-1.1,11.4,11.5
		c2,3.2,3.8,6.7,4,7.9c0.2,1.5,1.4,2.4,3.3,2.7c1.7,0.2,3.3,1.2,3.6,2.2c0.3,1,2,1.7,4.3,1.7c2,0,4.7,1,5.7,2.1
		c1.4,1.5,3.6,2.1,6.9,1.8c3.9-0.1,5.3,0.4,7.6,3.2c4.3,5,11.1,10,13.4,10c1.1,0,4.9,1.3,8.4,3.1c5.2,2.4,8.2,3.1,16.2,3.1
		c5.7,0,11.2,0.7,13.2,1.6c1.9,1,6.2,1.8,9.7,2c3.5,0.1,9,0.4,12.2,0.6c3.2,0.1,8.7-0.7,12.2-1.8c3.5-1.2,9.2-2.4,12.7-2.9
		c3.5-0.4,7.3-1.5,8.6-2.4c4.1-3.1,29.7-0.7,34.2,3.3c1.4,1.2,4.1,2.2,6.2,2.2c3.8,0,16.5,2.2,19.3,3.4c0.8,0.4,4.7,0.7,8.3,1
		c4.6,0.2,7.4,1,8.7,2.3c1.2,1.2,2.8,1.8,3.8,1.3c1.1-0.5,2.2-0.1,2.6,0.6c0.4,0.7,3.2,1.7,6.1,2.1c4.6,0.5,5.9,0.1,7.9-2.1
		c2.2-2.4,3.4-2.6,17.7-2.3c8.4,0,16.2-0.1,17.4-0.5c1.2-0.4,3.7,0.4,5.6,1.8c3.2,2.2,4.8,2.3,14.8,1.6c9.2-0.6,11.8-0.4,13.4,1.1
		c2.2,2,12.9,1.7,22.8-0.7c2.6-0.6,8.8-1.2,13.8-1.3c5-0.1,9.3-0.7,9.6-1.3c1-1.5,24.2-2.1,24.2-0.7c0,0.6,1.1,1.1,2.3,1.1
		s5.3,0.9,9.1,2c3.7,1.1,7,1.6,7.3,1.2s1-4.2,1.3-8.3l0.6-7.7l3.9-0.4c4.1-0.4,5.3-2.4,6.7-11.5c0.3-2.7,1.5-5.1,2.5-5.9
		c2.1-1.2,6.5-10.5,6.5-13.7c0-1.1,1.6-6,3.6-11c1.9-4.9,3.8-9.9,4.1-11.1c0.5-1.5,1.8-2.1,4.7-2.1c3.6,0,4.2-0.5,5.3-3.7
		c0.7-2.3,1.9-3.7,3.2-3.7c1.1,0,3.8-1.1,6.1-2.4c2.3-1.3,4.8-2.4,5.5-2.4c2,0,4.9-8.1,4.3-12.2c-0.3-2.1-0.1-4,0.4-4.4
		c0.4-0.4,0.8-2,0.8-3.7s0.6-3.3,1.5-3.7c1.3-0.5,1.1-1.7-1.1-6.4c-3.6-8.2-4-23.6-0.6-27.3c1.7-1.7,2.3-3.9,2.3-7.6
		c0-2.8,0.6-10.2,1.5-16.1c0.8-6.1,1.6-13.8,1.6-17.2c0.1-11.7,2.8-21.2,7.4-26.7c3.8-4.5,4.2-5.6,4.3-11.7
		c0.2-9.7-1.7-27.8-3.6-34.9c-1-3.4-2.2-9.4-2.9-13.3c-2-13.2-12.8-32.8-23.7-43.3c-1-1-1.6-3.5-1.6-6.5c0-6.2-2.5-11.3-7.5-15.3
		c-2.2-1.7-4.7-5.3-5.8-8.2c-2.6-7-7.8-14.3-10.1-14.3c-2,0-3.1-2.3-3.1-6.6c0-1.6-0.8-3.8-2-4.9c-2-2.1-2.6-2.3-11.9-3.8
		c-2.8-0.4-5.8-1.5-6.9-2.3c-1.1-1-2.5-1.5-3.2-1.1c-2.2,1-24.2-4.4-28.6-7c-5.5-3.3-12.5-3.2-15.3,0.1c-1.9,2.2-3,2.4-10.8,1.8
		c-4.8-0.5-12.7-1.1-17.7-1.5c-7-0.5-9.4-1.2-10.9-3.1c-1.4-1.7-3.3-2.3-7-2.3c-3.7,0-5.6-0.6-6.9-2.3c-1.9-2.4-10.3-6.4-13.2-6.1
		C413.7,367.8,410.1,368.9,406.6,370.3z"/>
</g>
</svg>
