<?xml version="1.0" encoding="utf-8"?>
<!-- Generator: Adobe Illustrator 23.0.2, SVG Export Plug-In . SVG Version: 6.00 Build 0)  -->
<svg version="1.1" id="Layer_1" xmlns="http://www.w3.org/2000/svg" xmlns:xlink="http://www.w3.org/1999/xlink" x="0px" y="0px"
	 viewBox="0 0 301 130" style="enable-background:new 0 0 301 130;" xml:space="preserve">
<style type="text/css">
	.st0{enable-background:new    ;}
	.st1{fill:#333333;}
	.st2{fill:#1C1C1C;}
</style>
<title>logo_dark</title>
<g class="st0">
	<path class="st1" d="M41.4,84.1c-3.1,0-6.3-0.3-9.6-0.9c-0.5-0.1-0.9-0.3-1.1-0.7c-0.2,0.3-0.4,0.5-0.8,0.6
		c-0.4,0.1-0.7,0.1-1.1,0.1c-0.9-0.3-1.4-0.9-1.4-1.7l-0.7-38.9c0-0.6,0.2-1,0.6-1.3c0.4-0.3,0.8-0.5,1.3-0.5c0.4,0,0.8,0.1,1.1,0.4
		c0.2-0.2,0.5-0.3,0.8-0.3c1.5-0.3,3.1-0.5,4.7-0.6c1.6-0.1,3.1-0.2,4.6-0.2c3.9,0,7.6,0.5,11.1,1.5c3.5,1,6.5,2.5,9.1,4.5
		c2.6,2,4.7,4.4,6.1,7.2c1.5,2.8,2.2,6,2.2,9.5c0,3.4-0.7,6.3-2.1,9c-1.4,2.6-3.3,4.9-5.8,6.7c-2.5,1.8-5.3,3.2-8.5,4.2
		C48.6,83.6,45.1,84.1,41.4,84.1z M41.8,80.8c3.2,0,6.2-0.4,8.9-1.2c2.8-0.8,5.2-2,7.3-3.6c2.1-1.6,3.8-3.5,4.9-5.7
		c1.2-2.2,1.8-4.8,1.8-7.6c0-3-0.7-5.8-2-8.1c-1.3-2.4-3.1-4.4-5.4-6.1c-2.3-1.7-4.9-2.9-7.9-3.8c-3-0.9-6.1-1.3-9.5-1.3
		c-2.9,0-5.8,0.3-8.8,0.9c0,0-0.1,0-0.2,0c-0.1,0-0.2,0-0.3,0c-0.2,0-0.4,0-0.5-0.1l0.7,36c0.4-0.4,0.9-0.5,1.6-0.4
		C35.8,80.5,38.9,80.8,41.8,80.8z"/>
	<path class="st1" d="M131.9,83.5c-1.8,0-3.5-0.5-5.1-1.5c-1.6-1-3.1-2.3-4.5-4c-1.4-1.7-2.7-3.6-3.9-5.6c-1.2-2.1-2.3-4.2-3.2-6.4
		c-2.6-5.8-4.9-12.8-7-21.1c-0.1-0.6,0-1.1,0.3-1.5c0.3-0.4,0.8-0.6,1.4-0.6c0.4,0,0.7,0.1,1,0.3c0.3,0.2,0.6,0.5,0.7,1
		c1.5,5.7,3,10.8,4.6,15.1c1.6,4.4,3.2,8.1,4.9,11.2c3.5,6.3,7.1,9.4,10.7,9.4c3.3,0,6.5-2.8,9.8-8.4c1.7-2.9,3.3-6.7,4.9-11.2
		c1.6-4.5,3.1-9.9,4.6-16.1c0.1-0.5,0.3-0.8,0.6-1c0.3-0.2,0.7-0.3,1-0.3c0.8,0,1.3,0.2,1.6,0.6c0.3,0.4,0.4,0.9,0.3,1.4
		c-1,4.4-2.1,8.5-3.2,12.1c-1.1,3.6-2.3,6.9-3.6,9.7c-0.9,2.1-1.9,4.1-3,6.1c-1.1,2-2.3,3.8-3.7,5.4c-1.3,1.6-2.8,2.9-4.3,3.9
		C135.3,83,133.6,83.5,131.9,83.5z"/>
	<path class="st1" d="M228.7,83.3c-0.5,0-1-0.2-1.3-0.5c-0.4-0.3-0.6-0.7-0.6-1.2c0-0.2,0-0.3,0.1-0.6c0.7-2,1.2-4.2,1.6-6.4
		s0.6-4.4,0.6-6.5c0-4.1-0.9-7.4-2.6-9.9c-1.8-2.4-4.6-3.8-8.4-4.1c-2.9-0.1-5.3,0.6-7.4,2.1s-3.8,3.5-5.2,6
		c-1.2,2.3-2.2,4.9-2.8,7.7c-0.6,2.9-0.9,5.7-0.9,8.4c0,0.4,0,0.8,0,1.2s0,0.8,0.1,1.2c0,0.7-0.2,1.2-0.6,1.5
		c-0.4,0.3-0.8,0.4-1.3,0.4c-1,0-1.5-0.6-1.7-1.7c-0.3-2.4-0.5-5.1-0.7-8.1c-0.2-3-0.4-6-0.5-9c-0.1-3-0.2-5.8-0.2-8.4
		c0-0.7,0-1.4,0-2.1s0-1.3,0.1-1.8c0-0.7,0.2-1.1,0.6-1.4c0.4-0.3,0.8-0.4,1.2-0.3c0.5,0,0.9,0.2,1.2,0.5c0.3,0.3,0.5,0.7,0.5,1.3
		c0,1.5,0.1,2.8,0.1,3.9c0,1.1,0,2.3,0,3.5c0,1.2,0,2.7,0,4.6c0.8-2.6,2.1-4.9,3.7-6.9c1.6-2,3.6-3.6,5.8-4.7
		c2.2-1.1,4.6-1.7,7.1-1.7c3.3,0,6.1,0.7,8.4,2.1c2.3,1.4,4.1,3.4,5.3,6c1.2,2.6,1.8,5.5,1.8,8.9c0,2.6-0.2,5.1-0.7,7.5
		s-1.1,4.9-1.9,7.4c-0.1,0.4-0.3,0.7-0.6,0.9C229.4,83.2,229.1,83.3,228.7,83.3z"/>
	<path class="st1" d="M266,82.7c-1,0.3-1.9,0.5-2.9,0.6c-1,0.1-1.9,0.2-2.9,0.2c-2.6,0-5.1-0.4-7.5-1.3c-2.4-0.9-4.6-2.1-6.5-3.8
		c-1.9-1.6-3.4-3.5-4.5-5.7c-1.1-2.2-1.7-4.6-1.7-7.2c0-3.7,0.8-6.9,2.5-9.7s4-5.1,6.9-6.7s6.2-2.4,9.9-2.4c2.3,0,4.5,0.4,6.6,1.3
		c2.1,0.9,4,2.1,5.7,3.6c1.7,1.5,3,3.3,4,5.4c1,2,1.5,4.2,1.5,6.5c0,1.9-0.6,3.4-1.8,4.4c-1.2,1-2.9,1.6-4.9,2
		c-2.1,0.3-4.3,0.5-6.8,0.5c-1.7,0-3.5-0.1-5.6-0.2c-2-0.1-4-0.3-6-0.5c-2-0.2-3.7-0.4-5.1-0.6c-0.6-0.1-1-0.3-1.2-0.6
		c-0.2-0.3-0.4-0.7-0.4-1.1c0-0.5,0.2-1,0.6-1.4c0.4-0.4,0.9-0.5,1.5-0.4c0.7,0.2,1.8,0.3,3.3,0.5c1.5,0.2,3.2,0.3,5,0.5
		c1.8,0.1,3.5,0.2,5.2,0.3c1.6,0.1,3,0.1,4,0.1c2.9-0.1,5.1-0.4,6.6-1.1s2.2-1.7,2.2-3.2c0-1.6-0.4-3.1-1.3-4.6
		c-0.8-1.5-2-2.9-3.4-4.1c-1.4-1.2-3-2.2-4.6-2.9c-1.7-0.7-3.4-1.1-5.2-1.1c-2.2-0.1-4.3,0.3-6.3,1.1c-1.9,0.8-3.6,2-5.1,3.4
		c-1.4,1.4-2.6,3.1-3.4,5s-1.2,3.9-1.2,6c0,2,0.5,3.9,1.5,5.6c1,1.8,2.3,3.3,4,4.6c1.7,1.3,3.5,2.3,5.5,3.1c2,0.7,4.1,1.1,6.1,1.1
		c1.4,0,2.8-0.2,4.2-0.6c0.1,0,0.3-0.1,0.5-0.1c0.5,0,0.9,0.2,1.3,0.5c0.4,0.3,0.6,0.8,0.6,1.3c0,0.3-0.1,0.6-0.3,0.9
		C266.7,82.3,266.4,82.5,266,82.7z"/>
</g>
<path class="st2" d="M87.1,55c-0.1,0.1-0.2,0.2-0.3,0.3c-5.1,1.6-8.9,7-8.9,13.4c0,4.3,2.5,12.6,2.6,12.9c0.1,0.5,0.6,0.9,1.2,0.9
	h16.4c0.6,0,1-0.4,1.2-0.9c0.1-0.3,2.6-8.6,2.6-12.9c0-6.4-3.8-11.8-8.9-13.4c-0.1-0.1-0.2-0.2-0.3-0.3c-0.9-0.5-1.5-1.5-1.4-2.6
	v-8.6c-0.1-1.5,1.1-2.7,2.5-2.7H96c0.8-0.1,1.3-0.7,1.3-1.5c-0.1-0.7-0.6-1.2-1.3-1.3H83.5c-0.8,0.1-1.3,0.7-1.3,1.5
	c0.1,0.7,0.6,1.2,1.3,1.3H86c1.5,0.1,2.6,1.3,2.5,2.8v8.6C88.5,53.5,88,54.5,87.1,55z M99.2,68.7c0,3.1-1.5,8.8-2.2,11.1H82.5
	c-0.6-2.3-2.2-8-2.2-11.1c0-6.1,4.2-11.1,9.4-11.1S99.2,62.6,99.2,68.7z"/>
<path class="st2" d="M177.2,64.7c0.1-0.1,0.2-0.2,0.3-0.3c5.1-1.6,8.9-7,8.9-13.4c0-4.3-2.5-12.6-2.6-12.9c-0.1-0.5-0.6-0.9-1.2-1
	h-16.4c-0.6,0-1,0.4-1.2,1c-0.1,0.3-2.6,8.6-2.6,12.9c0,6.4,3.8,11.8,8.9,13.4c0.1,0.1,0.2,0.2,0.3,0.3c0.9,0.6,1.4,1.5,1.4,2.6V76
	c0.1,1.5-1.1,2.7-2.5,2.8h-2.5c-0.8,0.1-1.3,0.7-1.3,1.5c0.1,0.7,0.6,1.2,1.3,1.3h12.6c0.8-0.1,1.3-0.7,1.3-1.5
	c-0.1-0.7-0.6-1.2-1.3-1.3h-2.5c-1.5-0.1-2.6-1.3-2.5-2.8v-8.7C175.7,66.3,176.3,65.3,177.2,64.7L177.2,64.7z M165,51
	c0-3.1,1.5-8.8,2.2-11.1h14.5c0.6,2.3,2.2,8,2.2,11.1c0,6.1-4.2,11.1-9.4,11.1S165,57.1,165,51L165,51z"/>
<path class="st1" d="M149.1,0C75.1,0,13.5,22.7,0,52.7h0.1c13.6-29,74-50.8,146.6-50.8c82.5,0,149.4,28.3,149.4,63.2
	s-66.9,63.2-149.4,63.2c-70.2,0-129.1-20.5-145.1-48H1.4c16,28.6,76,49.8,147.7,49.8C233,130,301,100.9,301,65S233,0,149.1,0z"/>
</svg>
