<svg id="Layer_1" data-name="Layer 1" xmlns="http://www.w3.org/2000/svg" viewBox="0 0 301 130"><defs><style>.cls-1{font-size:57.8px;font-family:HachiMaruPop-Regular, Hachi Maru Pop;}.cls-1,.cls-3{fill:#333;}.cls-2{fill:#1c1c1c;}</style></defs><title>logo_dark</title><text class="cls-1" transform="translate(21.97 79.02) scale(1.03 1)">D V ne</text><path class="cls-2" d="M91.07,65a1.38,1.38,0,0,0-.34.3c-5.14,1.55-8.94,7-8.94,13.39,0,4.33,2.48,12.56,2.59,12.91a1.27,1.27,0,0,0,1.19.94h16.37a1.27,1.27,0,0,0,1.19-.94c.11-.35,2.59-8.58,2.59-12.91,0-6.42-3.8-11.84-8.94-13.39a1.22,1.22,0,0,0-.34-.3A2.94,2.94,0,0,1,95,62.39V53.74A2.65,2.65,0,0,1,97.53,51h2.52a1.39,1.39,0,0,0,0-2.77H87.46a1.39,1.39,0,0,0,0,2.77H90a2.65,2.65,0,0,1,2.52,2.77v8.65A2.94,2.94,0,0,1,91.07,65ZM103.2,78.66c0,3.09-1.54,8.83-2.18,11.08H86.49c-.64-2.25-2.18-8-2.18-11.08,0-6.1,4.24-11.07,9.45-11.07s9.44,5,9.44,11.07Z" transform="translate(-4 -10)"/><path class="cls-2" d="M181.16,74.74a1.58,1.58,0,0,0,.34-.29c5.14-1.56,8.94-7,8.94-13.4,0-4.33-2.48-12.56-2.59-12.9a1.27,1.27,0,0,0-1.19-.95H170.29a1.27,1.27,0,0,0-1.19.95c-.11.34-2.59,8.57-2.59,12.9,0,6.42,3.8,11.84,8.94,13.4a1.58,1.58,0,0,0,.34.29,3,3,0,0,1,1.43,2.59V86a2.65,2.65,0,0,1-2.52,2.77h-2.52a1.39,1.39,0,0,0,0,2.77h12.59a1.39,1.39,0,0,0,0-2.77h-2.52A2.65,2.65,0,0,1,179.73,86V77.33a3,3,0,0,1,1.43-2.59ZM169,61.05c0-3.09,1.54-8.82,2.18-11.08h14.53c.64,2.25,2.18,8,2.18,11.08,0,6.11-4.24,11.08-9.45,11.08s-9.44-5-9.44-11.08Z" transform="translate(-4 -10)"/><path class="cls-3" d="M153.13,10C79.11,10,17.48,32.66,4,62.66h.11c13.57-29,74-50.85,146.58-50.85,82.53,0,149.43,28.29,149.43,63.19s-66.9,63.19-149.43,63.19c-70.19,0-129.07-20.46-145.11-48l-.15,0c16,28.58,76,49.82,147.7,49.82C237,140,305,110.9,305,75S237,10,153.13,10Z" transform="translate(-4 -10)"/></svg>