<svg id="Layer_1" data-name="Layer 1" xmlns="http://www.w3.org/2000/svg" viewBox="0 0 301 135.89"><defs><style>.cls-1{font-size:57.42px;font-family:HachiMaruPop-Regular, Hachi Maru Pop;}.cls-1,.cls-3{fill:#ab9178;}.cls-2{fill:#d19164;}</style></defs><title>logo</title><text class="cls-1" transform="translate(15.06 82.45) scale(1.05 1)">D V ne</text><path class="cls-2" d="M85.77,66.54a1.58,1.58,0,0,0-.34.29c-5.19,1.55-9,6.93-9,13.31,0,4.3,2.5,12.47,2.6,12.82a1.29,1.29,0,0,0,1.21.94H96.75A1.28,1.28,0,0,0,98,93c.11-.35,2.61-8.52,2.61-12.82,0-6.38-3.84-11.76-9-13.31a1.42,1.42,0,0,0-.35-.29A2.93,2.93,0,0,1,89.76,64V55.38a2.65,2.65,0,0,1,2.54-2.75h2.54a1.38,1.38,0,0,0,0-2.75H82.13a1.38,1.38,0,0,0,0,2.75h2.54a2.65,2.65,0,0,1,2.54,2.75V64a2.92,2.92,0,0,1-1.44,2.57ZM98,80.14c0,3.07-1.55,8.77-2.2,11H81.15c-.65-2.24-2.2-7.94-2.2-11,0-6.06,4.28-11,9.53-11S98,74.08,98,80.14Z" transform="translate(-5 -7)"/><path class="cls-2" d="M178.76,76.24a1.37,1.37,0,0,0,.34-.29c5.19-1.55,9-6.93,9-13.31,0-4.3-2.51-12.47-2.61-12.82a1.29,1.29,0,0,0-1.21-.94H167.78a1.28,1.28,0,0,0-1.2.94c-.11.35-2.61,8.52-2.61,12.82C164,69,167.81,74.4,173,76a1.42,1.42,0,0,0,.35.29,2.92,2.92,0,0,1,1.44,2.57V87.4a2.66,2.66,0,0,1-2.55,2.75h-2.54a1.38,1.38,0,0,0,0,2.75H182.4a1.38,1.38,0,0,0,0-2.75h-2.54a2.66,2.66,0,0,1-2.54-2.75V78.81a2.92,2.92,0,0,1,1.44-2.57Zm-12.25-13.6c0-3.07,1.55-8.77,2.2-11h14.67c.65,2.24,2.2,7.94,2.2,11,0,6.06-4.27,11-9.53,11s-9.54-4.94-9.54-11Z" transform="translate(-5 -7)"/><path class="cls-3" d="M154.13,7C80.11,7,18.48,30.69,5,62h.11c13.57-30.31,74-53.16,146.58-53.16,82.53,0,149.43,29.57,149.43,66.06S234.22,141,151.69,141C81.5,141,22.62,119.61,6.58,90.77l-.15,0c16,29.87,76,52.07,147.7,52.07C238,142.89,306,112.47,306,75S238,7,154.13,7Z" transform="translate(-5 -7)"/></svg>