<?xml version="1.0" encoding="utf-8"?>
<!-- Generator: Adobe Illustrator 23.0.2, SVG Export Plug-In . SVG Version: 6.00 Build 0)  -->
<svg version="1.1" id="Layer_1" xmlns="http://www.w3.org/2000/svg" xmlns:xlink="http://www.w3.org/1999/xlink" x="0px" y="0px"
	 viewBox="0 0 301 135.9" style="enable-background:new 0 0 301 135.9;" xml:space="preserve">
<style type="text/css">
	.st0{enable-background:new    ;}
	.st1{fill:#AB9178;}
	.st2{fill:#D19164;}
</style>
<title>logo</title>
<g class="st0">
	<path class="st1" d="M34.8,87.5c-3.1,0-6.4-0.3-9.7-0.9c-0.5-0.1-0.9-0.3-1.1-0.7c-0.2,0.3-0.4,0.5-0.8,0.6
		c-0.4,0.1-0.7,0.1-1.1,0.1c-0.9-0.3-1.4-0.9-1.4-1.7l-0.7-38.6c0-0.6,0.2-1,0.6-1.3c0.4-0.3,0.8-0.5,1.3-0.5c0.4,0,0.8,0.1,1.1,0.4
		c0.2-0.2,0.5-0.3,0.8-0.3c1.6-0.3,3.1-0.5,4.7-0.6c1.6-0.1,3.1-0.2,4.7-0.2c4,0,7.7,0.5,11.2,1.5c3.5,1,6.6,2.5,9.2,4.5
		s4.7,4.3,6.2,7.1c1.5,2.8,2.2,6,2.2,9.5c0,3.3-0.7,6.3-2.1,8.9c-1.4,2.6-3.4,4.8-5.8,6.6c-2.5,1.8-5.4,3.2-8.7,4.1
		C42,87,38.5,87.5,34.8,87.5z M35.1,84.2c3.2,0,6.2-0.4,9-1.2c2.8-0.8,5.3-2,7.4-3.5c2.1-1.6,3.8-3.4,5-5.7c1.2-2.2,1.8-4.7,1.8-7.5
		c0-3-0.7-5.7-2-8.1c-1.3-2.4-3.1-4.4-5.5-6.1c-2.3-1.7-5-2.9-8-3.8c-3-0.9-6.2-1.3-9.6-1.3c-2.9,0-5.9,0.3-8.9,0.9c0,0-0.1,0-0.2,0
		c-0.1,0-0.2,0-0.3,0c-0.2,0-0.4,0-0.5-0.1l0.7,35.8c0.4-0.4,0.9-0.5,1.6-0.4C29.1,83.9,32.2,84.2,35.1,84.2z"/>
	<path class="st1" d="M126.4,86.9c-1.8,0-3.6-0.5-5.2-1.5c-1.6-1-3.1-2.3-4.6-4c-1.4-1.7-2.7-3.5-3.9-5.6c-1.2-2.1-2.3-4.2-3.3-6.4
		c-2.6-5.7-5-12.7-7.1-21c-0.1-0.6,0-1.1,0.3-1.5c0.3-0.4,0.8-0.6,1.4-0.6c0.4,0,0.7,0.1,1,0.3c0.3,0.2,0.6,0.5,0.7,0.9
		c1.5,5.7,3.1,10.7,4.7,15c1.6,4.4,3.2,8.1,5,11.1c3.6,6.2,7.2,9.4,10.8,9.4c3.3,0,6.6-2.8,9.9-8.3c1.7-2.9,3.3-6.6,4.9-11.1
		c1.6-4.5,3.2-9.8,4.6-16c0.1-0.5,0.3-0.8,0.6-1c0.3-0.2,0.7-0.3,1-0.3c0.8,0,1.3,0.2,1.6,0.6c0.3,0.4,0.4,0.9,0.3,1.4
		c-1,4.4-2.1,8.4-3.3,12c-1.1,3.6-2.4,6.8-3.6,9.7c-0.9,2.1-1.9,4.1-3.1,6.1c-1.1,2-2.4,3.8-3.7,5.4c-1.3,1.6-2.8,2.9-4.3,3.8
		C129.8,86.5,128.1,86.9,126.4,86.9z"/>
	<path class="st1" d="M224.4,86.7c-0.5,0-1-0.2-1.4-0.5c-0.4-0.3-0.6-0.7-0.6-1.2c0-0.2,0-0.3,0.1-0.6c0.7-2,1.2-4.2,1.7-6.4
		s0.6-4.4,0.6-6.5c0-4.1-0.9-7.4-2.7-9.8c-1.8-2.4-4.6-3.8-8.5-4c-2.9-0.1-5.4,0.6-7.5,2.1c-2.1,1.5-3.8,3.5-5.2,5.9
		c-1.2,2.3-2.2,4.8-2.8,7.7s-0.9,5.7-0.9,8.4c0,0.4,0,0.8,0,1.2c0,0.4,0,0.8,0.1,1.2c0,0.7-0.2,1.2-0.6,1.5
		c-0.4,0.3-0.9,0.4-1.3,0.4c-1,0-1.6-0.6-1.7-1.7c-0.3-2.4-0.5-5.1-0.8-8.1c-0.2-3-0.4-6-0.5-9c-0.1-3-0.2-5.8-0.2-8.3
		c0-0.7,0-1.4,0-2.1c0-0.7,0-1.3,0.1-1.8c0-0.7,0.2-1.1,0.6-1.4c0.4-0.3,0.8-0.4,1.2-0.3c0.5,0,0.9,0.2,1.2,0.5
		c0.3,0.3,0.5,0.7,0.5,1.3c0,1.5,0.1,2.8,0.1,3.9c0,1.1,0,2.3,0,3.4c0,1.2,0,2.7,0,4.5c0.8-2.6,2.1-4.9,3.8-6.9
		c1.7-2,3.6-3.5,5.9-4.7c2.3-1.1,4.7-1.7,7.2-1.7c3.3,0,6.2,0.7,8.5,2.1c2.4,1.4,4.1,3.4,5.4,5.9c1.2,2.5,1.9,5.5,1.9,8.8
		c0,2.6-0.2,5.1-0.7,7.5c-0.5,2.4-1.1,4.9-1.9,7.3c-0.1,0.4-0.3,0.7-0.6,0.9C225.1,86.6,224.8,86.7,224.4,86.7z"/>
	<path class="st1" d="M262.2,86.1c-1,0.3-1.9,0.5-2.9,0.6c-1,0.1-2,0.2-3,0.2c-2.6,0-5.1-0.4-7.6-1.3c-2.4-0.9-4.6-2.1-6.5-3.7
		c-1.9-1.6-3.5-3.5-4.6-5.7c-1.1-2.2-1.7-4.6-1.7-7.2c0-3.6,0.9-6.9,2.6-9.7c1.7-2.8,4-5,7-6.6c3-1.6,6.3-2.4,10-2.4
		c2.3,0,4.6,0.4,6.7,1.3s4.1,2.1,5.8,3.6c1.7,1.5,3,3.3,4,5.3c1,2,1.5,4.2,1.5,6.5c0,1.9-0.6,3.4-1.9,4.3c-1.2,1-2.9,1.6-5,2
		c-2.1,0.3-4.4,0.5-6.9,0.5c-1.7,0-3.6-0.1-5.6-0.2c-2.1-0.1-4.1-0.3-6.1-0.5c-2-0.2-3.7-0.4-5.2-0.6c-0.6-0.1-1-0.3-1.2-0.6
		s-0.4-0.7-0.4-1.1c0-0.5,0.2-1,0.6-1.3c0.4-0.4,0.9-0.5,1.5-0.4c0.7,0.2,1.8,0.3,3.4,0.5c1.5,0.2,3.2,0.3,5,0.5
		c1.8,0.1,3.6,0.2,5.2,0.3c1.7,0.1,3,0.1,4.1,0.1c3-0.1,5.2-0.4,6.7-1.1c1.5-0.6,2.3-1.7,2.3-3.1c0-1.6-0.4-3.1-1.3-4.6
		c-0.8-1.5-2-2.8-3.4-4c-1.4-1.2-3-2.2-4.7-2.9c-1.7-0.7-3.4-1.1-5.2-1.1c-2.3-0.1-4.4,0.3-6.3,1.1c-2,0.8-3.7,2-5.2,3.4
		c-1.5,1.4-2.6,3.1-3.4,5c-0.8,1.9-1.2,3.9-1.2,5.9c0,2,0.5,3.9,1.5,5.6s2.4,3.3,4,4.6c1.7,1.3,3.6,2.3,5.6,3c2,0.7,4.1,1.1,6.2,1.1
		c1.4,0,2.8-0.2,4.3-0.6c0.1,0,0.3-0.1,0.5-0.1c0.5,0,0.9,0.2,1.3,0.5c0.4,0.3,0.6,0.8,0.6,1.3c0,0.3-0.1,0.6-0.3,0.9
		C262.9,85.7,262.6,86,262.2,86.1z"/>
</g>
<path class="st2" d="M80.8,59.5c-0.1,0.1-0.2,0.2-0.3,0.3c-5.2,1.6-9,6.9-9,13.3c0,4.3,2.5,12.5,2.6,12.8c0.2,0.5,0.6,0.9,1.2,0.9
	h16.5c0.6,0,1.1-0.4,1.3-0.9c0.1-0.3,2.6-8.5,2.6-12.8c0-6.4-3.8-11.8-9-13.3c-0.1-0.1-0.2-0.2-0.3-0.3c-0.9-0.5-1.5-1.5-1.5-2.6
	v-8.6c-0.1-1.5,1.1-2.7,2.5-2.8h2.5c0.8-0.1,1.3-0.7,1.3-1.5c-0.1-0.7-0.6-1.2-1.3-1.3H77.1c-0.8,0.1-1.3,0.7-1.3,1.5
	c0.1,0.7,0.6,1.2,1.3,1.3h2.5c1.5,0.1,2.6,1.3,2.5,2.8V57C82.2,58.1,81.7,59,80.8,59.5L80.8,59.5z M93,73.1c0,3.1-1.6,8.8-2.2,11
	H76.2c-0.7-2.2-2.2-7.9-2.2-11c0-6.1,4.3-11,9.5-11S93,67.1,93,73.1z"/>
<path class="st2" d="M173.8,69.2c0.1-0.1,0.2-0.2,0.3-0.3c5.2-1.6,9-6.9,9-13.3c0-4.3-2.5-12.5-2.6-12.8c-0.2-0.5-0.6-0.9-1.2-0.9
	h-16.5c-0.6,0-1.1,0.4-1.2,0.9c-0.1,0.3-2.6,8.5-2.6,12.8c0,6.4,3.8,11.8,9,13.4c0.1,0.1,0.2,0.2,0.4,0.3c0.9,0.5,1.5,1.5,1.4,2.6
	v8.5c0.1,1.5-1.1,2.7-2.6,2.8h-2.5c-0.8,0.1-1.3,0.7-1.3,1.5c0.1,0.7,0.6,1.2,1.3,1.3h12.7c0.8-0.1,1.3-0.7,1.3-1.5
	c-0.1-0.7-0.6-1.2-1.3-1.3h-2.5c-1.5-0.1-2.6-1.3-2.5-2.8v-8.6C172.3,70.8,172.9,69.8,173.8,69.2L173.8,69.2z M161.5,55.6
	c0-3.1,1.6-8.8,2.2-11h14.7c0.6,2.2,2.2,7.9,2.2,11c0,6.1-4.3,11-9.5,11S161.5,61.7,161.5,55.6z"/>
<path class="st1" d="M149.1,0C75.1,0,13.5,23.7,0,55h0.1c13.6-30.3,74-53.2,146.6-53.2c82.5,0,149.4,29.6,149.4,66.1
	S229.2,134,146.7,134C76.5,134,17.6,112.6,1.6,83.8H1.4c16,29.9,76,52.1,147.7,52.1C233,135.9,301,105.5,301,68S233,0,149.1,0z"/>
</svg>
